<svg
  xmlns="http://www.w3.org/2000/svg"
  viewBox="0 0 700 290"
  stroke="#c0c0c0"
  stroke-width="3"
  style="background: #0b0b0b"
>
  <style>
    g text {
      font: 10px sans-serif;
      color: #c0c0c0;
      stroke-width: 0;
      fill: #c0c0c0;
    }

    g svg text {
      text-anchor: middle;
      dominant-baseline: middle;
    }

    g svg rect {
      fill: #0b0b0b;
    }

    g path {
      stroke-width: 2px;
      fill: none;
    }

    g polygon {
      fill: #c0c0c0;
      stroke-width: 0;
    }
  </style>
  <g>
    <title>JS80P Signal Chain</title>

    <rect x="0" y="0" width="100%" height="100%" fill="#0b0b0b" stroke="none" />

    <svg x="10" y="20" width="520" height="24">
      <svg x="0" y="0" width="80" height="24">
        <rect x="0" y="0" width="100%" height="100%" rx="5" />
        <text x="50%" y="50%">Oscillator</text>
      </svg>

      <path d="M80,12 L100,12"/>
      <polygon points="100,7 100,17 110,12"/>

      <svg x="110" y="0" width="80" height="24">
        <rect x="0" y="0" width="100%" height="100%" rx="5" />
        <text x="50%" y="50%">Filter</text>
      </svg>

      <path d="M190,12 L210,12"/>
      <polygon points="210,7 210,17 220,12"/>

      <svg x="220" y="0" width="80" height="24">
        <rect x="0" y="0" width="100%" height="100%" rx="5" />
        <text x="50%" y="50%">Wavefolder</text>
      </svg>

      <path d="M300,12 L320,12"/>
      <polygon points="320,7 320,17 330,12"/>

      <svg x="330" y="0" width="80" height="24">
        <rect x="0" y="0" width="100%" height="100%" rx="5" />
        <text x="50%" y="50%">Filter</text>
      </svg>

      <path d="M410,12 L430,12"/>
      <polygon points="430,7 430,17 440,12"/>

      <svg x="440" y="0" width="80" height="24">
        <rect x="0" y="0" width="100%" height="100%" rx="5" />
        <text x="50%" y="50%">Volume</text>
      </svg>
    </svg>

    <svg x="30" y="90" width="520" height="24">
      <svg x="0" y="0" width="80" height="24">
        <rect x="0" y="0" width="100%" height="100%" rx="5" />
        <text x="50%" y="50%">Oscillator</text>
      </svg>

      <path d="M80,12 L100,12"/>
      <polygon points="100,7 100,17 110,12"/>

      <svg x="110" y="0" width="80" height="24">
        <rect x="0" y="0" width="100%" height="100%" rx="5" />
        <text x="50%" y="50%">Filter</text>
      </svg>

      <path d="M190,12 L210,12"/>
      <polygon points="210,7 210,17 220,12"/>

      <svg x="220" y="0" width="80" height="24">
        <rect x="0" y="0" width="100%" height="100%" rx="5" />
        <text x="50%" y="50%">Wavefolder</text>
      </svg>

      <path d="M300,12 L320,12"/>
      <polygon points="320,7 320,17 330,12"/>

      <svg x="330" y="0" width="80" height="24">
        <rect x="0" y="0" width="100%" height="100%" rx="5" />
        <text x="50%" y="50%">Filter</text>
      </svg>

      <path d="M410,12 L430,12"/>
      <polygon points="430,7 430,17 440,12"/>

      <svg x="440" y="0" width="80" height="24">
        <rect x="0" y="0" width="100%" height="100%" rx="5" />
        <text x="50%" y="50%">Volume</text>
      </svg>
    </svg>

    <path d="M530,32 L580,32"/>
    <polygon points="580,27 580,37 590,32"/>

    <svg x="515" y="10" width="80" height="24">
      <text x="50%" y="50%">(x64)</text>
    </svg>

    <svg x="590" y="20" width="80" height="24">
      <rect x="0" y="0" width="100%" height="100%" rx="5" />
      <text x="50%" y="50%">Mixer</text>
    </svg>

    <path d="M550,102 L630,102 L630,54"/>
    <polygon points="625,54 635,54 630,44"/>

    <svg x="540" y="80" width="80" height="24">
      <text x="50%" y="50%">(x64)</text>
    </svg>

    <path d="M490,44 L490,70 L70,70 L70,80"/>
    <polygon points="65,80 75,80 70,90"/>

    <text x="75" y="64">(Frequency, Phase, and Amplitude Modulation)</text>

    <path d="M670,32 L690,32 L690,160 L90,160 L90,170"/>
    <polygon points="85,170 95,170 90,180"/>

    <svg x="50" y="180" width="520" height="24">
      <svg x="0" y="0" width="80" height="24">
        <rect x="0" y="0" width="100%" height="100%" rx="5" />
        <text x="50%" y="50%">Volume</text>
      </svg>

      <path d="M80,12 L100,12"/>
      <polygon points="100,7 100,17 110,12"/>

      <svg x="110" y="0" width="80" height="24">
        <rect x="0" y="0" width="100%" height="100%" rx="5" />
        <text x="50%" y="50%">Overdrive</text>
      </svg>

      <path d="M190,12 L210,12"/>
      <polygon points="210,7 210,17 220,12"/>

      <svg x="220" y="0" width="80" height="24">
        <rect x="0" y="0" width="100%" height="100%" rx="5" />
        <text x="50%" y="50%">Distortion</text>
      </svg>

      <path d="M300,12 L320,12"/>
      <polygon points="320,7 320,17 330,12"/>

      <svg x="330" y="0" width="80" height="24">
        <rect x="0" y="0" width="100%" height="100%" rx="5" />
        <text x="50%" y="50%">Filter</text>
      </svg>

      <path d="M410,12 L430,12"/>
      <polygon points="430,7 430,17 440,12"/>

      <svg x="440" y="0" width="80" height="24">
        <rect x="0" y="0" width="100%" height="100%" rx="5" />
        <text x="50%" y="50%">Filter</text>
      </svg>
    </svg>

    <path d="M570,192 L590,192 L590,230 L95,230 L95,240"/>
    <polygon points="90,240 100,240 95,250"/>

    <svg x="50" y="250" width="740" height="24">
      <svg x="0" y="0" width="80" height="24">
        <rect x="0" y="0" width="100%" height="100%" rx="5" />
        <text x="50%" y="50%">Volume</text>
      </svg>

      <path d="M80,12 L100,12"/>
      <polygon points="100,7 100,17 110,12"/>

      <svg x="110" y="0" width="80" height="24">
        <rect x="0" y="0" width="100%" height="100%" rx="5" />
        <text x="50%" y="50%">Chorus</text>
      </svg>

      <path d="M190,12 L210,12"/>
      <polygon points="210,7 210,17 220,12"/>

      <svg x="220" y="0" width="80" height="24">
        <rect x="0" y="0" width="100%" height="100%" rx="5" />
        <text x="50%" y="50%">Echo</text>
      </svg>

      <path d="M300,12 L320,12"/>
      <polygon points="320,7 320,17 330,12"/>

      <svg x="330" y="0" width="80" height="24">
        <rect x="0" y="0" width="100%" height="100%" rx="5" />
        <text x="50%" y="50%">Reverb</text>
      </svg>

      <path d="M410,12 L430,12"/>
      <polygon points="430,7 430,17 440,12"/>

      <svg x="440" y="0" width="80" height="24">
        <rect x="0" y="0" width="100%" height="100%" rx="5" />
        <text x="50%" y="50%">Volume</text>
      </svg>

      <path d="M520,12 L540,12"/>
      <polygon points="540,7 540,17 550,12"/>

      <svg x="550" y="0" width="80" height="24">
        <rect x="0" y="0" width="100%" height="100%" rx="5" />
        <text x="50%" y="50%">Out</text>
      </svg>
    </svg>
  </g>
</svg>

